HIERARCHY
ROOT hip
{
  OFFSET 0 0 0
  CHANNELS 6 Xposition Yposition Zposition Zrotation Yrotation Xrotation
  JOINT abdomen
  {
    OFFSET 0 20.6881 -0.73152
    CHANNELS 3 Zrotation Xrotation Yrotation
    JOINT chest
    {
      OFFSET 0 11.7043 -0.48768
      CHANNELS 3 Zrotation Xrotation Yrotation
      JOINT neck
      {
        OFFSET 0 22.1894 -2.19456
        CHANNELS 3 Zrotation Xrotation Yrotation
        JOINT head
        {
          OFFSET -0.24384 7.07133 1.2192
          CHANNELS 3 Zrotation Xrotation Yrotation
          JOINT leftEye
          {
            OFFSET 4.14528 8.04674 8.04672
            CHANNELS 3 Zrotation Xrotation Yrotation
            End Site
            {
              OFFSET 1 0 0
            }
          }
          JOINT rightEye
          {
            OFFSET -3.6576 8.04674 8.04672
            CHANNELS 3 Zrotation Xrotation Yrotation
            End Site
            {
              OFFSET 1 0 0
            }
          }
        }
      }
      JOINT rCollar
      {
        OFFSET -2.68224 19.2634 -4.8768
        CHANNELS 3 Zrotation Xrotation Yrotation
        JOINT rShldr
        {
          OFFSET -8.77824 -1.95073 1.46304
          CHANNELS 3 Zrotation Xrotation Yrotation
          JOINT rForeArm
          {
            OFFSET -28.1742 -1.7115 0.48768
            CHANNELS 3 Zrotation Xrotation Yrotation
            JOINT rHand
            {
              OFFSET -22.5879 0.773209 7.07136
              CHANNELS 3 Zrotation Xrotation Yrotation
              JOINT rThumb1
              {
                OFFSET -1.2192 -0.487915 3.41376
                CHANNELS 3 Zrotation Xrotation Yrotation
                JOINT rThumb2
                {
                  OFFSET -3.37035 -0.52449 3.41376
                  CHANNELS 3 Zrotation Xrotation Yrotation
                  End Site
                  {
                    OFFSET -1.78271 -1.18214 1.43049
                  }
                }
              }
              JOINT rIndex1
              {
                OFFSET -7.75947 0.938293 5.60832
                CHANNELS 3 Zrotation Xrotation Yrotation
                JOINT rIndex2
                {
                  OFFSET -2.54057 -0.884171 1.56538
                  CHANNELS 3 Zrotation Xrotation Yrotation
                  End Site
                  {
                    OFFSET -1.62519 -0.234802 1.16502
                  }
                }
              }
              JOINT rMid1
              {
                OFFSET -8.24714 1.18213 3.41376
                CHANNELS 3 Zrotation Xrotation Yrotation
                JOINT rMid2
                {
                  OFFSET -3.10165 -0.590103 1.0647
                  CHANNELS 3 Zrotation Xrotation Yrotation
                  End Site
                  {
                    OFFSET -2.48547 -0.328903 0.83742
                  }
                }
              }
              JOINT rRing1
              {
                OFFSET -8.82822 0.546677 1.51678
                CHANNELS 3 Zrotation Xrotation Yrotation
                JOINT rRing2
                {
                  OFFSET -2.60934 -0.819778 -0.0198488
                  CHANNELS 3 Zrotation Xrotation Yrotation
                  End Site
                  {
                    OFFSET -2.33842 -0.294052 0.168128
                  }
                }
              }
              JOINT rPinky1
              {
                OFFSET -8.27202 -0.0477905 -0.4584
                CHANNELS 3 Zrotation Xrotation Yrotation
                JOINT rPinky2
                {
                  OFFSET -1.82734 -0.647385 -0.700984
                  CHANNELS 3 Zrotation Xrotation Yrotation
                  End Site
                  {
                    OFFSET -1.69225 -0.51767 -0.607171
                  }
                }
              }
            }
          }
        }
      }
      JOINT lCollar
      {
        OFFSET 2.68224 19.2634 -4.8768
        CHANNELS 3 Zrotation Xrotation Yrotation
        JOINT lShldr
        {
          OFFSET 8.77824 -1.95073 1.46304
          CHANNELS 3 Zrotation Xrotation Yrotation
          JOINT lForeArm
          {
            OFFSET 28.1742 -1.7115 0.48768
            CHANNELS 3 Zrotation Xrotation Yrotation
            JOINT lHand
            {
              OFFSET 22.5879 0.773209 7.07136
              CHANNELS 3 Zrotation Xrotation Yrotation
              JOINT lThumb1
              {
                OFFSET 1.2192 -0.487915 3.41376
                CHANNELS 3 Zrotation Xrotation Yrotation
                JOINT lThumb2
                {
                  OFFSET 3.37035 -0.52449 3.41376
                  CHANNELS 3 Zrotation Xrotation Yrotation
                  End Site
                  {
                    OFFSET 1.78271 -1.18214 1.43049
                  }
                }
              }
              JOINT lIndex1
              {
                OFFSET 7.75947 0.938293 5.60832
                CHANNELS 3 Zrotation Xrotation Yrotation
                JOINT lIndex2
                {
                  OFFSET 2.54057 -0.884171 1.56538
                  CHANNELS 3 Zrotation Xrotation Yrotation
                  End Site
                  {
                    OFFSET 1.62519 -0.234802 1.16502
                  }
                }
              }
              JOINT lMid1
              {
                OFFSET 8.24714 1.18213 3.41376
                CHANNELS 3 Zrotation Xrotation Yrotation
                JOINT lMid2
                {
                  OFFSET 3.10165 -0.590103 1.0647
                  CHANNELS 3 Zrotation Xrotation Yrotation
                  End Site
                  {
                    OFFSET 2.48547 -0.328903 0.83742
                  }
                }
              }
              JOINT lRing1
              {
                OFFSET 8.82822 0.546677 1.51678
                CHANNELS 3 Zrotation Xrotation Yrotation
                JOINT lRing2
                {
                  OFFSET 2.60934 -0.819778 -0.0198488
                  CHANNELS 3 Zrotation Xrotation Yrotation
                  End Site
                  {
                    OFFSET 2.33842 -0.294052 0.168128
                  }
                }
              }
              JOINT lPinky1
              {
                OFFSET 8.27202 -0.0477905 -0.4584
                CHANNELS 3 Zrotation Xrotation Yrotation
                JOINT lPinky2
                {
                  OFFSET 1.82734 -0.647385 -0.700984
                  CHANNELS 3 Zrotation Xrotation Yrotation
                  End Site
                  {
                    OFFSET 1.69225 -0.51767 -0.607171
                  }
                }
              }
            }
          }
        }
      }
    }
  }
  JOINT rButtock
  {
    OFFSET -8.77824 4.35084 1.2192
    CHANNELS 3 Zrotation Xrotation Yrotation
    JOINT rThigh
    {
      OFFSET 0 -1.70687 -2.19456
      CHANNELS 3 Zrotation Xrotation Yrotation
      JOINT rShin
      {
        OFFSET 0 -36.8199 0.73152
        CHANNELS 3 Zrotation Xrotation Yrotation
        JOINT rFoot
        {
          OFFSET 0.73152 -45.1104 -5.12064
          CHANNELS 3 Zrotation Xrotation Yrotation
          End Site
          {
            OFFSET -1.1221 -3.69964 12.103
          }
        }
      }
    }
  }
  JOINT lButtock
  {
    OFFSET 8.77824 4.35084 1.2192
    CHANNELS 3 Zrotation Xrotation Yrotation
    JOINT lThigh
    {
      OFFSET 0 -1.70687 -2.19456
      CHANNELS 3 Zrotation Xrotation Yrotation
      JOINT lShin
      {
        OFFSET 0 -36.8199 0.73152
        CHANNELS 3 Zrotation Xrotation Yrotation
        JOINT lFoot
        {
          OFFSET -0.73152 -45.1104 -5.12064
          CHANNELS 3 Zrotation Xrotation Yrotation
          End Site
          {
            OFFSET 1.1221 -3.69964 12.103
          }
        }
      }
    }
  }
}
MOTION
Frames:	4
Frame Time:	0.03333
49.4539 55.5109 -29.536 -165.089037 51.619069 -162.632215 5.418727 15.234436 160.150812 -3.474439 6.683136 -144.299462 -14.312554 23.5371 -84.818903 40.741777 9.109371 62.635743 0.003278 -0.0 -0.002865 -0.002446 0.0 -0.002612 0.162794 -0.990171 -0.217618 -101.422139 18.884889 97.987628 -35.442986 18.000463 -74.24138 167.938046 -43.763461 140.722092 -162.890798 -0.575951 89.353689 19.516969 -57.246972 21.491311 -138.494119 4.896909 114.865388 8.721982 0.476914 -9.13031 -160.741282 -6.876613 143.277082 -7.497792 26.111505 6.447288 -145.099559 -1.523026 -178.649666 -153.182762 -19.044286 -176.451233 -12.374726 -24.157646 -11.759141 -159.212495 55.653044 -149.896106 0.025325 0.151129 -0.033215 -78.001292 23.383889 -11.674967 178.349034 -0.733291 -32.768643 -125.610632 -54.408324 -121.724251 -88.928607 -50.832065 -37.599163 119.010372 32.000272 -81.050305 0.326849 0.529876 -0.187631 -10.686019 1.268436 0.366102 160.939087 -7.487934 -143.367689 7.501233 26.111068 -6.446114 0.021455 -1.72574 0.544476 6.492589 62.756544 -19.322953 145.17273 12.067509 141.823408 -11.337395 26.242754 -4.0304 -0.0 0.000161 0.000653 1.591393 -37.496188 180.0 -37.993452 -81.404243 27.958612 26.463484 -29.542488 90.913176 -0.000317 0.000161 0.000407 1.357226 -72.15306 1.425812 -142.790212 77.68175 40.685675 144.479568 -16.976879 -125.996914
52.8427 55.589 -32.8426 -162.7587 59.211264 -160.944832 2.379595 14.796124 156.173445 -4.243465 5.959039 -141.018604 7.456093 19.770767 85.788695 -35.034237 4.093821 -95.480264 -0.002479 -0.0 0.004143 -0.002719 0.0 -0.000663 -150.168904 21.534909 155.27436 115.638789 43.509289 -131.827697 143.207983 -52.051744 27.282008 -159.40947 26.967244 133.885277 -176.598309 -14.213068 89.691746 147.123806 -48.348711 101.312498 1.338043 -2.205592 -0.73777 -83.720048 47.612909 65.739158 2.098562 -6.305632 -1.082048 7.223597 -12.315712 -1.222402 -78.572319 -72.040599 -95.867579 14.118728 27.601188 -1.050561 -151.492376 34.557683 -147.062368 -127.706078 -28.91935 -124.781236 130.420788 54.549868 -134.288996 177.263173 41.323775 -111.284298 -118.860826 -80.720188 31.479589 -144.897215 -42.960862 -136.285247 171.603277 -9.286311 -89.949852 -32.675822 -65.503428 -26.679112 -37.216529 -57.917527 0.640677 174.74897 -39.726047 -108.694745 167.37621 -28.008621 -145.267603 64.990523 63.274515 -57.738028 145.111902 -0.64854 178.926156 -12.188568 44.667511 3.865117 110.055992 -41.782864 108.127453 -3.324664 0.064853 1.347496 179.999726 75.750099 -0.0 -176.860781 45.233613 -2.18597 21.512098 68.176841 4.864534 178.466955 -13.388976 67.163482 -0.00766 -0.000456 -0.005745 17.558634 -76.563817 -180.0 80.702484 -67.302229 171.167798 137.53269 -32.351968 -117.079397
56.6647 56.151399999999995 -36.274699999999996 -159.434013 65.311126 -158.06783 -0.279616 17.196862 0.071541 0.220443 -10.294301 12.960108 -1.416932 12.424077 14.556533 -0.629208 -25.316046 -17.320704 0.000874 -0.0 -0.000621 0.000766 0.0 0.002469 -130.420508 54.549423 134.288089 131.29313 -22.212921 169.274191 165.926469 -3.021662 35.314165 -154.855718 30.357047 131.00279 -68.482212 37.954087 35.65964 59.545414 -44.185706 19.779554 15.557013 -27.951029 -5.751104 20.192634 -8.306743 -2.414494 -0.05845 0.167849 0.030933 3.436471 -0.605163 -0.104062 0.00397 1.771047 0.555517 0.112916 -79.150048 -20.336122 0.098395 0.257921 0.093968 -52.417569 -53.338609 -52.460946 44.914897 -86.288228 66.52265 60.359044 -46.407086 116.600432 -90.844056 -25.017198 96.915696 179.707817 33.950775 -151.968719 -81.276659 -49.995397 -32.239859 164.060193 -63.128136 -142.295663 46.208413 39.65195 -36.319533 -103.811674 -63.866412 -53.59868 160.342081 -5.644213 -143.08727 128.931526 51.840648 -118.06568 145.098502 -1.604311 178.624533 152.87456 -21.109759 176.083931 80.940108 -51.227339 79.359392 93.604291 -50.959832 93.847593 -8.6e-05 -0.001812 0.000111 -0.664486 -26.526382 86.129588 67.694186 -0.302117 -72.164905 -6.041965 -37.192054 -44.733573 0.0 0.00104 -0.00046 27.968057 -70.512408 29.390893 3.006613 65.668042 -80.520169 -14.002965 -4.394018 80.3189
60.6977 56.80159999999999 -39.8926 -155.157351 69.017725 -155.760509 -3.09055 11.158672 -180.0 -0.539864 3.845359 -167.936337 -12.579203 20.034827 -69.043966 34.079511 8.772769 70.717872 0.0033 0.0 0.001805 0.003325 -0.0 -0.003045 -83.674805 68.268995 86.806025 -11.204458 -15.755953 60.28857 13.088902 -82.053562 130.597952 -10.959704 -20.706564 -5.824823 88.928221 -50.831341 37.599879 -150.656367 -1.639726 114.68928 -100.824632 37.734376 85.162114 -2.12705 13.786796 -3.061927 -160.098324 -4.901072 142.969129 18.272202 -42.032287 0.335753 -0.0001 -0.061089 -0.017535 10.554985 -3.272711 -0.473436 10.836191 35.844769 9.283984 0.884381 -2.531143 -1.016765 -4.223075 -44.025511 8.502185 98.536603 -9.043292 -155.202894 178.459816 -20.927231 119.48181 9.970698 36.755671 -3.251816 -66.257629 -46.843377 -22.116381 154.233229 -28.658975 -128.494495 129.577229 16.760967 -108.785253 171.626696 -27.85642 -117.280107 8.416275 20.880625 -5.644409 163.394555 -5.378361 -143.400336 -0.004168 1.771539 -0.555506 -7.303825 26.539498 -4.024248 86.17138 -50.466831 84.539816 145.057023 7.538599 141.625795 179.908094 75.749343 0.070836 174.991042 57.092834 16.59006 18.612237 66.67632 -93.741897 -122.904272 -47.656974 -29.170592 -179.997458 75.749357 -0.002622 -166.325004 9.678878 -2.069693 5.596464 54.703344 -141.598468 29.542924 -31.389864 167.119273
